# xmcd
# Track frame offsets:
# 225
# 12720
# 26162
# 38352
# 50454
# 64822
# 83154
# 94834
# 108927
# 119520
# 130956
# 145610
# 156787
# 174433
# 188128
# 200465
# 213176
#
# Disc length: 3045 seconds
# Revision: 0
# Processed by: cddbd v1.5.1PL2 Copyright (c) Steve Scherf et al.
# Submitted via: VisiTrax 2.9.10.228 - For more info visit www.synapsa.com
#
DISCID=e70be211
DTITLE=Majella O'Donnell - At Last
DYEAR=2006
DGENRE=World
TTITLE0=Majella O'Donnell - What I've Got In Mind
TTITLE1=Majella O'Donnell - She's Got You
TTITLE2=Majella O'Donnell (Duet With Daniel O'Donnell) - Have I Told You Latel
TTITLE2=y
TTITLE3=Majella O'Donnell - Jolene
TTITLE4=Majella O'Donnell - When I found you
TTITLE5=Majella O'Donnell - Wall Of Tears
TTITLE6=Majella O'Donnell - Walkin After Midnight
TTITLE7=Majella O'Donnell (Duet With Daniel O'Donnell) - All I Want Is You
TTITLE8=Majella O'Donnell - You Ain't Woman Enough
TTITLE9=Majella O'Donnell - Sweet Dreams
TTITLE10=Majella O'Donnell - Cliffs of Dooneen
TTITLE11=Majella O'Donnell - Please Help Me
TTITLE12=Majella O'Donnell - Will Ye Go Lassie Go
TTITLE13=Majella O'Donnell - Your Cheatin' Heart
TTITLE14=Majella O'Donnell - Crazy
TTITLE15=Majella O'Donnell - She Moved Though The Fair
TTITLE16=Majella O'Donnell - Haper Valley  PTA
EXTD=
EXTT0=
EXTT1=
EXTT2=
EXTT3=
EXTT4=
EXTT5=
EXTT6=
EXTT7=
EXTT8=
EXTT9=
EXTT10=
EXTT11=
EXTT12=
EXTT13=
EXTT14=
EXTT15=
EXTT16=
PLAYORDER=
